<mxfile host="app.diagrams.net" modified="2024-01-03T17:02:59.111Z" agent="Mozilla/5.0 (X11; Ubuntu; Linux x86_64; rv:120.0) Gecko/20100101 Firefox/120.0" version="22.1.16" etag="4IK_ydwiLDeb3HJRZPCQ" type="github">
  <diagram name="Page-1" id="mQtbVmiTcFKuWA2-cMfX">
    <mxGraphModel>
      <root>
        <mxCell id="0" />
        <mxCell id="1" parent="0" />
      </root>
    </mxGraphModel>
  </diagram>
</mxfile>
